<svg xmlns="http://www.w3.org/2000/svg" viewBox="0 0 1200 800" role="img" aria-label="Iceland mountain scene">
  <defs>
    <linearGradient id="sky" x1="0" y1="0" x2="1" y2="1">
      <stop offset="0" stop-color="#bcd3da"/>
      <stop offset=".55" stop-color="#eef5f1"/>
      <stop offset="1" stop-color="#637b69"/>
    </linearGradient>
  </defs>
  <rect width="1200" height="800" fill="url(#sky)"/>
  <path d="M0 608 C230 510 360 545 540 450 C750 338 915 365 1200 250 L1200 800 L0 800 Z" fill="#2f4749"/>
  <polygon points="115,650 360,265 605,650" fill="#dcebe7"/>
  <polygon points="275,650 555,230 865,650" fill="#607b62"/>
  <polygon points="470,360 555,230 650,360" fill="#f8fbfa"/>
  <path d="M0 700 C220 640 430 705 650 648 C850 597 1000 632 1200 575 L1200 800 L0 800 Z" fill="#225c68" opacity=".58"/>
  <text x="72" y="104" fill="#fff" font-family="Arial, sans-serif" font-size="30" font-weight="700" letter-spacing="3">ICELAND</text>
  <text x="72" y="158" fill="#fff" font-family="Arial, sans-serif" font-size="54" font-weight="700">Mountains</text>
</svg>
